<svg width="1200" height="800" xmlns="http://www.w3.org/2000/svg"><circle cx="1096.4614441186256" cy="280.702794274921" r="3" fill="#00d22e" opacity="0.9" filter="blur(0.2px)" /><circle cx="127.06770922858111" cy="252.08674162045276" r="3" fill="#00d22e" opacity="0.4" filter="blur(0.2px)" /><circle cx="417.9531201325113" cy="603.3516677354285" r="3" fill="#00d22e" opacity="0.7" filter="blur(0.2px)" /><circle cx="721.2179671428964" cy="221.6270559075605" r="3" fill="#00d22e" opacity="0.7" filter="blur(0.2px)" /><circle cx="633.2035080353791" cy="323.02233228032884" r="3" fill="#00d22e" opacity="0.7" filter="blur(0.2px)" /><circle cx="965.6745215639" cy="650.01511326719" r="3" fill="#00d22e" opacity="0.9" filter="blur(0.2px)" /><circle cx="75.4534800200716" cy="220.95465908789666" r="3" fill="#00d22e" opacity="0.4" filter="blur(0.2px)" /><circle cx="169.15647241900177" cy="563.763030906461" r="3" fill="#00d22e" opacity="0.4" filter="blur(0.2px)" /><circle cx="296.1248424078349" cy="264.52091929806375" r="3" fill="#00d22e" opacity="0.4" filter="blur(0.2px)" /><circle cx="361.4669538562748" cy="246.16492669556214" r="3" fill="#00d22e" opacity="0.4" filter="blur(0.2px)" /><circle cx="224.09265120943402" cy="45.33638341000952" r="3" fill="#00d22e" opacity="0.4" filter="blur(0.2px)" /><circle cx="1081.1336203969772" cy="278.46543239163617" r="3" fill="#00d22e" opacity="0.9" filter="blur(0.2px)" /><circle cx="317.467401189795" cy="675.0881920177809" r="3" fill="#00d22e" opacity="0.4" filter="blur(0.2px)" /><circle cx="37.51152664950741" cy="489.18221464590613" r="3" fill="#00d22e" opacity="0.4" filter="blur(0.2px)" /><circle cx="511.8201220722837" cy="544.8212027291735" r="3" fill="#00d22e" opacity="0.7" filter="blur(0.2px)" /><circle cx="763.6880466047677" cy="37.90750526409301" r="3" fill="#00d22e" opacity="0.7" filter="blur(0.2px)" /><circle cx="1033.5029766117082" cy="340.29261944636744" r="3" fill="#00d22e" opacity="0.9" filter="blur(0.2px)" /><circle cx="590.3053954849978" cy="219.43744093018046" r="3" fill="#00d22e" opacity="0.7" filter="blur(0.2px)" /><circle cx="1020.693237937738" cy="447.77861267419166" r="3" fill="#00d22e" opacity="0.9" filter="blur(0.2px)" /><circle cx="254.24028083003068" cy="513.6340249945783" r="3" fill="#00d22e" opacity="0.4" filter="blur(0.2px)" /><circle cx="404.4988297870112" cy="263.2327698805959" r="3" fill="#00d22e" opacity="0.7" filter="blur(0.2px)" /><circle cx="109.77431523238366" cy="359.9021138567688" r="3" fill="#00d22e" opacity="0.4" filter="blur(0.2px)" /><circle cx="973.3481414047315" cy="188.92579115120185" r="3" fill="#00d22e" opacity="0.9" filter="blur(0.2px)" /><circle cx="568.5708820476574" cy="30.526094505057877" r="3" fill="#00d22e" opacity="0.7" filter="blur(0.2px)" /><circle cx="973.370611196191" cy="332.5790092568111" r="3" fill="#00d22e" opacity="0.9" filter="blur(0.2px)" /><circle cx="730.7861198725217" cy="645.4315420295513" r="3" fill="#00d22e" opacity="0.7" filter="blur(0.2px)" /><circle cx="394.4583900024142" cy="285.43517663186276" r="3" fill="#00d22e" opacity="0.4" filter="blur(0.2px)" /><circle cx="507.4478226852498" cy="354.45940735949273" r="3" fill="#00d22e" opacity="0.7" filter="blur(0.2px)" /><circle cx="259.89663584165237" cy="450.0543438259367" r="3" fill="#00d22e" opacity="0.4" filter="blur(0.2px)" /><circle cx="79.83523075938903" cy="284.6985675723996" r="3" fill="#00d22e" opacity="0.4" filter="blur(0.2px)" /><circle cx="176.7257360533315" cy="442.4724531338018" r="3" fill="#00d22e" opacity="0.4" filter="blur(0.2px)" /><circle cx="244.471208014774" cy="72.51049820974522" r="3" fill="#00d22e" opacity="0.4" filter="blur(0.2px)" /><circle cx="785.4851301357105" cy="625.4340230736943" r="3" fill="#00d22e" opacity="0.7" filter="blur(0.2px)" /><circle cx="1070.8190268429996" cy="175.29173652365665" r="3" fill="#00d22e" opacity="0.9" filter="blur(0.2px)" /><circle cx="645.0618747524713" cy="758.3167326200673" r="3" fill="#00d22e" opacity="0.7" filter="blur(0.2px)" /><circle cx="641.3273266848739" cy="540.6043851838707" r="3" fill="#00d22e" opacity="0.7" filter="blur(0.2px)" /><circle cx="1126.2080425948782" cy="158.12563231192325" r="3" fill="#00d22e" opacity="0.9" filter="blur(0.2px)" /><circle cx="686.243865309041" cy="365.9331164888245" r="3" fill="#00d22e" opacity="0.7" filter="blur(0.2px)" /><circle cx="1193.2690288505278" cy="166.37771081399873" r="3" fill="#00d22e" opacity="0.9" filter="blur(0.2px)" /><circle cx="532.6530542494755" cy="116.17120567353024" r="3" fill="#00d22e" opacity="0.7" filter="blur(0.2px)" /><circle cx="1088.0647282546406" cy="56.749236250349355" r="3" fill="#00d22e" opacity="0.9" filter="blur(0.2px)" /><circle cx="342.4159097824604" cy="321.72491469976376" r="3" fill="#00d22e" opacity="0.4" filter="blur(0.2px)" /><circle cx="798.6626418041504" cy="282.74217505285276" r="3" fill="#00d22e" opacity="0.7" filter="blur(0.2px)" /><circle cx="502.50729647920906" cy="675.4679595817461" r="3" fill="#00d22e" opacity="0.7" filter="blur(0.2px)" /><circle cx="552.2985615460881" cy="753.4612048174722" r="3" fill="#00d22e" opacity="0.7" filter="blur(0.2px)" /><circle cx="453.44494234278693" cy="399.41300690411697" r="3" fill="#00d22e" opacity="0.7" filter="blur(0.2px)" /><circle cx="599.5269838268039" cy="355.2568858597166" r="3" fill="#00d22e" opacity="0.7" filter="blur(0.2px)" /><circle cx="971.7238074290884" cy="218.57909972618364" r="3" fill="#00d22e" opacity="0.9" filter="blur(0.2px)" /><circle cx="216.24450345440582" cy="655.3143241956045" r="3" fill="#00d22e" opacity="0.4" filter="blur(0.2px)" /><circle cx="865.7789150992467" cy="631.4689290034042" r="3" fill="#00d22e" opacity="0.9" filter="blur(0.2px)" /><circle cx="64.85388249089664" cy="671.5447489646775" r="3" fill="#00d22e" opacity="0.4" filter="blur(0.2px)" /><circle cx="466.6309435325502" cy="668.5881974558653" r="3" fill="#00d22e" opacity="0.7" filter="blur(0.2px)" /><circle cx="994.8522639982667" cy="79.2082878152705" r="3" fill="#00d22e" opacity="0.9" filter="blur(0.2px)" /><circle cx="543.219958914931" cy="767.9955122900946" r="3" fill="#00d22e" opacity="0.7" filter="blur(0.2px)" /><circle cx="1064.4231884917897" cy="553.652063004335" r="3" fill="#00d22e" opacity="0.9" filter="blur(0.2px)" /><circle cx="354.89202973558776" cy="74.39507742087682" r="3" fill="#00d22e" opacity="0.4" filter="blur(0.2px)" /><circle cx="178.73189133826878" cy="795.5936251095993" r="3" fill="#00d22e" opacity="0.4" filter="blur(0.2px)" /><circle cx="352.48340266702047" cy="198.2276479886048" r="3" fill="#00d22e" opacity="0.4" filter="blur(0.2px)" /><circle cx="361.45008426811137" cy="748.6815087132836" r="3" fill="#00d22e" opacity="0.4" filter="blur(0.2px)" /><circle cx="233.8592399396168" cy="6.769071651448044" r="3" fill="#00d22e" opacity="0.4" filter="blur(0.2px)" /><circle cx="431.84072072263825" cy="350.6891422710178" r="3" fill="#00d22e" opacity="0.7" filter="blur(0.2px)" /><circle cx="690.6301613731379" cy="457.0117418945205" r="3" fill="#00d22e" opacity="0.7" filter="blur(0.2px)" /><circle cx="747.8890830111725" cy="711.7887431630888" r="3" fill="#00d22e" opacity="0.7" filter="blur(0.2px)" /><circle cx="529.364354528828" cy="455.99918468049214" r="3" fill="#00d22e" opacity="0.7" filter="blur(0.2px)" /><circle cx="513.3475165374182" cy="704.3340221174794" r="3" fill="#00d22e" opacity="0.7" filter="blur(0.2px)" /><circle cx="410.5727945245394" cy="249.1684888694074" r="3" fill="#00d22e" opacity="0.7" filter="blur(0.2px)" /><circle cx="408.79416117271757" cy="785.7977762745404" r="3" fill="#00d22e" opacity="0.7" filter="blur(0.2px)" /><circle cx="262.1055519219889" cy="601.7022177896062" r="3" fill="#00d22e" opacity="0.4" filter="blur(0.2px)" /><circle cx="76.70572804423195" cy="593.9636643157279" r="3" fill="#00d22e" opacity="0.4" filter="blur(0.2px)" /><circle cx="1112.1803658411914" cy="396.9960377953814" r="3" fill="#00d22e" opacity="0.9" filter="blur(0.2px)" /><circle cx="947.3594205342292" cy="684.567778598367" r="3" fill="#00d22e" opacity="0.9" filter="blur(0.2px)" /><circle cx="193.86766719061904" cy="493.10688362330274" r="3" fill="#00d22e" opacity="0.4" filter="blur(0.2px)" /><circle cx="254.56288021154947" cy="100.86331805684381" r="3" fill="#00d22e" opacity="0.4" filter="blur(0.2px)" /><circle cx="815.6033612588919" cy="415.3601681149695" r="3" fill="#00d22e" opacity="0.9" filter="blur(0.2px)" /><circle cx="749.2622443079991" cy="776.5403640512488" r="3" fill="#00d22e" opacity="0.7" filter="blur(0.2px)" /><circle cx="993.5642773440761" cy="200.44130522260008" r="3" fill="#00d22e" opacity="0.9" filter="blur(0.2px)" /><circle cx="1102.6214321559623" cy="701.0176939176347" r="3" fill="#00d22e" opacity="0.9" filter="blur(0.2px)" /><circle cx="664.3712320271181" cy="644.29613492149" r="3" fill="#00d22e" opacity="0.7" filter="blur(0.2px)" /><circle cx="588.1526821872437" cy="255.9548268848589" r="3" fill="#00d22e" opacity="0.7" filter="blur(0.2px)" /><circle cx="1088.7601045104168" cy="447.44932299409345" r="3" fill="#00d22e" opacity="0.9" filter="blur(0.2px)" /><circle cx="725.6183611160071" cy="603.6272841655597" r="3" fill="#00d22e" opacity="0.7" filter="blur(0.2px)" /><circle cx="588.911411693816" cy="508.81587205387575" r="3" fill="#00d22e" opacity="0.7" filter="blur(0.2px)" /><circle cx="231.5351386077528" cy="686.9628222271934" r="3" fill="#00d22e" opacity="0.4" filter="blur(0.2px)" /><circle cx="499.8808622780853" cy="233.00332872922098" r="3" fill="#00d22e" opacity="0.7" filter="blur(0.2px)" /><circle cx="768.0584214314302" cy="584.0267493252601" r="3" fill="#00d22e" opacity="0.7" filter="blur(0.2px)" /><circle cx="1018.1088567022803" cy="61.119312187634556" r="3" fill="#00d22e" opacity="0.9" filter="blur(0.2px)" /><circle cx="713.2988437590535" cy="178.4556101048384" r="3" fill="#00d22e" opacity="0.7" filter="blur(0.2px)" /><circle cx="849.4164101901174" cy="316.0469923353311" r="3" fill="#00d22e" opacity="0.9" filter="blur(0.2px)" /><circle cx="934.9594246890298" cy="582.2896093168926" r="3" fill="#00d22e" opacity="0.9" filter="blur(0.2px)" /><circle cx="45.33669308509856" cy="122.79640015615331" r="3" fill="#00d22e" opacity="0.4" filter="blur(0.2px)" /><circle cx="1042.3151407788055" cy="162.42940832961423" r="3" fill="#00d22e" opacity="0.9" filter="blur(0.2px)" /><circle cx="1155.903640684408" cy="771.1070253230178" r="3" fill="#00d22e" opacity="0.9" filter="blur(0.2px)" /><circle cx="378.3538793489885" cy="88.72754353051616" r="3" fill="#00d22e" opacity="0.4" filter="blur(0.2px)" /><circle cx="281.6506062308066" cy="295.6806655730778" r="3" fill="#00d22e" opacity="0.4" filter="blur(0.2px)" /><circle cx="645.8058241603106" cy="200.32001408098682" r="3" fill="#00d22e" opacity="0.7" filter="blur(0.2px)" /><circle cx="966.192774336645" cy="301.21096909025357" r="3" fill="#00d22e" opacity="0.9" filter="blur(0.2px)" /><circle cx="826.3880371160074" cy="783.2855959785095" r="3" fill="#00d22e" opacity="0.9" filter="blur(0.2px)" /><circle cx="39.27172565143229" cy="46.392343982094886" r="3" fill="#00d22e" opacity="0.4" filter="blur(0.2px)" /><circle cx="1109.0439197377402" cy="771.2631302149993" r="3" fill="#00d22e" opacity="0.9" filter="blur(0.2px)" /><circle cx="389.5464829964209" cy="225.86859970030898" r="3" fill="#00d22e" opacity="0.4" filter="blur(0.2px)" /><circle cx="366.9331072470329" cy="426.1801296393598" r="3" fill="#00d22e" opacity="0.4" filter="blur(0.2px)" /><circle cx="161.8520583745858" cy="621.1210653731737" r="3" fill="#00d22e" opacity="0.4" filter="blur(0.2px)" /><circle cx="1140.8698211360145" cy="18.25544255542848" r="3" fill="#00d22e" opacity="0.9" filter="blur(0.2px)" /><circle cx="828.049460467937" cy="671.1756124031622" r="3" fill="#00d22e" opacity="0.9" filter="blur(0.2px)" /><circle cx="908.077905987318" cy="150.25092639712216" r="3" fill="#00d22e" opacity="0.9" filter="blur(0.2px)" /><circle cx="811.5237753209445" cy="589.8326045074214" r="3" fill="#00d22e" opacity="0.9" filter="blur(0.2px)" /><circle cx="743.2793939833772" cy="247.7788379037218" r="3" fill="#00d22e" opacity="0.7" filter="blur(0.2px)" /><circle cx="530.8832112376234" cy="441.8084812986074" r="3" fill="#00d22e" opacity="0.7" filter="blur(0.2px)" /><circle cx="621.9114977227794" cy="572.8926415075089" r="3" fill="#00d22e" opacity="0.7" filter="blur(0.2px)" /><circle cx="523.5393563165549" cy="175.67995817621753" r="3" fill="#00d22e" opacity="0.7" filter="blur(0.2px)" /><circle cx="1091.4750691707961" cy="214.7567347944678" r="3" fill="#00d22e" opacity="0.9" filter="blur(0.2px)" /><circle cx="690.3258199688028" cy="93.49391836339632" r="3" fill="#00d22e" opacity="0.7" filter="blur(0.2px)" /><circle cx="423.45182875643326" cy="678.066026893889" r="3" fill="#00d22e" opacity="0.7" filter="blur(0.2px)" /><circle cx="1020.8472285885243" cy="565.6432823242214" r="3" fill="#00d22e" opacity="0.9" filter="blur(0.2px)" /><circle cx="910.1623082105856" cy="70.90009510807995" r="3" fill="#00d22e" opacity="0.9" filter="blur(0.2px)" /><circle cx="149.90326801780824" cy="731.7308319469827" r="3" fill="#00d22e" opacity="0.4" filter="blur(0.2px)" /><circle cx="279.42020497666044" cy="194.1341339209277" r="3" fill="#00d22e" opacity="0.4" filter="blur(0.2px)" /><circle cx="778.4405191830028" cy="713.5525212975624" r="3" fill="#00d22e" opacity="0.7" filter="blur(0.2px)" /><circle cx="1195.443783653984" cy="604.5661785277026" r="3" fill="#00d22e" opacity="0.9" filter="blur(0.2px)" /><circle cx="1015.5867436063775" cy="562.2567810853294" r="3" fill="#00d22e" opacity="0.9" filter="blur(0.2px)" /><circle cx="922.8808430834898" cy="384.396462160587" r="3" fill="#00d22e" opacity="0.9" filter="blur(0.2px)" /><circle cx="69.42968732867412" cy="620.6276608047174" r="3" fill="#00d22e" opacity="0.4" filter="blur(0.2px)" /><circle cx="627.1531538730003" cy="111.14410190485096" r="3" fill="#00d22e" opacity="0.7" filter="blur(0.2px)" /><circle cx="165.480497343672" cy="53.036981875399825" r="3" fill="#00d22e" opacity="0.4" filter="blur(0.2px)" /><circle cx="631.9601595739778" cy="348.2638334276517" r="3" fill="#00d22e" opacity="0.7" filter="blur(0.2px)" /><circle cx="1117.474941782254" cy="661.0017130410591" r="3" fill="#00d22e" opacity="0.9" filter="blur(0.2px)" /><circle cx="253.896481426919" cy="143.92040209336284" r="3" fill="#00d22e" opacity="0.4" filter="blur(0.2px)" /><circle cx="421.82597025501786" cy="27.836942336546144" r="3" fill="#00d22e" opacity="0.7" filter="blur(0.2px)" /><circle cx="516.3840764090061" cy="123.35903946951223" r="3" fill="#00d22e" opacity="0.7" filter="blur(0.2px)" /><circle cx="466.59510146107647" cy="356.2385756710727" r="3" fill="#00d22e" opacity="0.7" filter="blur(0.2px)" /><circle cx="861.9334669294941" cy="12.062623262088046" r="3" fill="#00d22e" opacity="0.9" filter="blur(0.2px)" /><circle cx="386.3088941191824" cy="536.9810083428403" r="3" fill="#00d22e" opacity="0.4" filter="blur(0.2px)" /><circle cx="662.7686199803474" cy="314.66438844822096" r="3" fill="#00d22e" opacity="0.7" filter="blur(0.2px)" /><circle cx="1112.8377940686496" cy="571.0537193029843" r="3" fill="#00d22e" opacity="0.9" filter="blur(0.2px)" /><circle cx="803.9966495933837" cy="280.9115666374033" r="3" fill="#00d22e" opacity="0.9" filter="blur(0.2px)" /><circle cx="772.0669754794603" cy="658.5416018652095" r="3" fill="#00d22e" opacity="0.7" filter="blur(0.2px)" /><circle cx="71.11723039997617" cy="742.2477901285106" r="3" fill="#00d22e" opacity="0.4" filter="blur(0.2px)" /><circle cx="404.80623820178516" cy="703.6109309537223" r="3" fill="#00d22e" opacity="0.7" filter="blur(0.2px)" /><circle cx="411.3415543390112" cy="553.0448936367867" r="3" fill="#00d22e" opacity="0.7" filter="blur(0.2px)" /><circle cx="820.9242269938463" cy="185.20366125151816" r="3" fill="#00d22e" opacity="0.9" filter="blur(0.2px)" /><circle cx="1100.4845373271573" cy="648.691188570788" r="3" fill="#00d22e" opacity="0.9" filter="blur(0.2px)" /><circle cx="1129.2794945016165" cy="164.84356364614996" r="3" fill="#00d22e" opacity="0.9" filter="blur(0.2px)" /><circle cx="488.51404285804347" cy="412.03383181926176" r="3" fill="#00d22e" opacity="0.7" filter="blur(0.2px)" /><circle cx="606.2961697891457" cy="493.40292194031684" r="3" fill="#00d22e" opacity="0.7" filter="blur(0.2px)" /><circle cx="530.462755421632" cy="695.7463452275758" r="3" fill="#00d22e" opacity="0.7" filter="blur(0.2px)" /><circle cx="473.7992465138647" cy="198.02031700640566" r="3" fill="#00d22e" opacity="0.7" filter="blur(0.2px)" /><circle cx="920.3046251674368" cy="486.51012206629076" r="3" fill="#00d22e" opacity="0.9" filter="blur(0.2px)" /><circle cx="1143.8287742401608" cy="209.08853309534905" r="3" fill="#00d22e" opacity="0.9" filter="blur(0.2px)" /><circle cx="1039.3823746491482" cy="253.351002288983" r="3" fill="#00d22e" opacity="0.9" filter="blur(0.2px)" /><circle cx="51.364449239440546" cy="372.94704194693634" r="3" fill="#00d22e" opacity="0.4" filter="blur(0.2px)" /><circle cx="178.72958528702574" cy="541.8837532661406" r="3" fill="#00d22e" opacity="0.4" filter="blur(0.2px)" /><circle cx="714.7643673654916" cy="239.66755631443846" r="3" fill="#00d22e" opacity="0.7" filter="blur(0.2px)" /><circle cx="435.5027005820064" cy="747.5652692393062" r="3" fill="#00d22e" opacity="0.7" filter="blur(0.2px)" /><circle cx="1163.3524842519164" cy="650.7953432725647" r="3" fill="#00d22e" opacity="0.9" filter="blur(0.2px)" /><circle cx="1136.392286050807" cy="677.311895255837" r="3" fill="#00d22e" opacity="0.9" filter="blur(0.2px)" /><circle cx="501.91716053526187" cy="652.100981403012" r="3" fill="#00d22e" opacity="0.7" filter="blur(0.2px)" /><circle cx="698.2140805386615" cy="216.99237867718784" r="3" fill="#00d22e" opacity="0.7" filter="blur(0.2px)" /><circle cx="1118.5116643741503" cy="7.0693648171577195" r="3" fill="#00d22e" opacity="0.9" filter="blur(0.2px)" /><circle cx="1061.6696916366664" cy="476.94363319463713" r="3" fill="#00d22e" opacity="0.9" filter="blur(0.2px)" /><circle cx="200.73442171684314" cy="449.0961305685403" r="3" fill="#00d22e" opacity="0.4" filter="blur(0.2px)" /><circle cx="397.71294470125787" cy="649.7077435509747" r="3" fill="#00d22e" opacity="0.4" filter="blur(0.2px)" /><circle cx="359.4746363353781" cy="491.5783994224446" r="3" fill="#00d22e" opacity="0.4" filter="blur(0.2px)" /><circle cx="409.15396588788656" cy="217.4068985838245" r="3" fill="#00d22e" opacity="0.7" filter="blur(0.2px)" /><circle cx="470.3058905236574" cy="212.38721691163266" r="3" fill="#00d22e" opacity="0.7" filter="blur(0.2px)" /><circle cx="950.1906289294725" cy="125.09752559185915" r="3" fill="#00d22e" opacity="0.9" filter="blur(0.2px)" /><circle cx="979.5181555303286" cy="525.7013621859516" r="3" fill="#00d22e" opacity="0.9" filter="blur(0.2px)" /><circle cx="444.45063813924503" cy="449.6679756982159" r="3" fill="#00d22e" opacity="0.7" filter="blur(0.2px)" /><circle cx="295.0808911273144" cy="460.99482870704327" r="3" fill="#00d22e" opacity="0.4" filter="blur(0.2px)" /><circle cx="765.5186255758545" cy="512.281663397432" r="3" fill="#00d22e" opacity="0.7" filter="blur(0.2px)" /><circle cx="185.63706683019942" cy="327.6052402819374" r="3" fill="#00d22e" opacity="0.4" filter="blur(0.2px)" /><circle cx="525.2339239780466" cy="91.08515008713223" r="3" fill="#00d22e" opacity="0.7" filter="blur(0.2px)" /><circle cx="189.24111433079025" cy="266.3401962260249" r="3" fill="#00d22e" opacity="0.4" filter="blur(0.2px)" /><circle cx="700.3037318594569" cy="296.946489570508" r="3" fill="#00d22e" opacity="0.7" filter="blur(0.2px)" /><circle cx="274.16953152810055" cy="112.1372485925285" r="3" fill="#00d22e" opacity="0.4" filter="blur(0.2px)" /><circle cx="516.3869573063657" cy="482.51188683305594" r="3" fill="#00d22e" opacity="0.7" filter="blur(0.2px)" /><circle cx="803.1275326991986" cy="279.1452796688386" r="3" fill="#00d22e" opacity="0.9" filter="blur(0.2px)" /><circle cx="269.5051853370976" cy="723.2100990606814" r="3" fill="#00d22e" opacity="0.4" filter="blur(0.2px)" /><circle cx="802.6574789497708" cy="256.2371364449509" r="3" fill="#00d22e" opacity="0.9" filter="blur(0.2px)" /><circle cx="896.6237456600467" cy="699.7559731202024" r="3" fill="#00d22e" opacity="0.9" filter="blur(0.2px)" /><circle cx="250.88257781058695" cy="366.7304632071181" r="3" fill="#00d22e" opacity="0.4" filter="blur(0.2px)" /><circle cx="1091.342447730847" cy="215.54001325576522" r="3" fill="#00d22e" opacity="0.9" filter="blur(0.2px)" /><circle cx="594.0663560718513" cy="523.559152257906" r="3" fill="#00d22e" opacity="0.7" filter="blur(0.2px)" /><circle cx="1018.830442663922" cy="273.59763732736263" r="3" fill="#00d22e" opacity="0.9" filter="blur(0.2px)" /><circle cx="367.52411166234526" cy="62.70933672132717" r="3" fill="#00d22e" opacity="0.4" filter="blur(0.2px)" /><circle cx="233.90170385959922" cy="497.75092403990175" r="3" fill="#00d22e" opacity="0.4" filter="blur(0.2px)" /><circle cx="1071.7704232897083" cy="478.14997541865927" r="3" fill="#00d22e" opacity="0.9" filter="blur(0.2px)" /><circle cx="413.5012359717158" cy="764.3614015261471" r="3" fill="#00d22e" opacity="0.7" filter="blur(0.2px)" /><circle cx="373.4126882797756" cy="724.2643702583484" r="3" fill="#00d22e" opacity="0.4" filter="blur(0.2px)" /><circle cx="274.27061660661974" cy="151.18951094404397" r="3" fill="#00d22e" opacity="0.4" filter="blur(0.2px)" /><circle cx="909.9411657020886" cy="41.99314082498358" r="3" fill="#00d22e" opacity="0.9" filter="blur(0.2px)" /><circle cx="258.3859878282353" cy="316.5805217360317" r="3" fill="#00d22e" opacity="0.4" filter="blur(0.2px)" /><circle cx="277.775489394122" cy="4.087102137463283" r="3" fill="#00d22e" opacity="0.4" filter="blur(0.2px)" /><circle cx="764.7454351567181" cy="23.58406379352047" r="3" fill="#00d22e" opacity="0.7" filter="blur(0.2px)" /><circle cx="748.4796853864934" cy="558.7529342355976" r="3" fill="#00d22e" opacity="0.7" filter="blur(0.2px)" /><circle cx="217.1529310928354" cy="658.4619813293247" r="3" fill="#00d22e" opacity="0.4" filter="blur(0.2px)" /><circle cx="538.6731941526285" cy="344.5757680055758" r="3" fill="#00d22e" opacity="0.7" filter="blur(0.2px)" /><circle cx="238.575579765517" cy="517.2933553087682" r="3" fill="#00d22e" opacity="0.4" filter="blur(0.2px)" /><circle cx="468.6384137234641" cy="488.76317519219316" r="3" fill="#00d22e" opacity="0.7" filter="blur(0.2px)" /><circle cx="638.8477518269867" cy="587.4808966422573" r="3" fill="#00d22e" opacity="0.7" filter="blur(0.2px)" /><circle cx="1133.3047999703163" cy="242.67177865319775" r="3" fill="#00d22e" opacity="0.9" filter="blur(0.2px)" /><circle cx="614.4866821123328" cy="650.9304162068996" r="3" fill="#00d22e" opacity="0.7" filter="blur(0.2px)" /><circle cx="147.83982754722658" cy="148.3786466494422" r="3" fill="#00d22e" opacity="0.4" filter="blur(0.2px)" /><circle cx="1104.9423489464623" cy="84.33312112362934" r="3" fill="#00d22e" opacity="0.9" filter="blur(0.2px)" /><circle cx="1157.4583096389626" cy="703.3556032964702" r="3" fill="#00d22e" opacity="0.9" filter="blur(0.2px)" /><circle cx="487.35014500327213" cy="190.81828442087314" r="3" fill="#00d22e" opacity="0.7" filter="blur(0.2px)" /><circle cx="35.79473943746913" cy="400.7476547968162" r="3" fill="#00d22e" opacity="0.4" filter="blur(0.2px)" /><circle cx="830.1236934212762" cy="174.0599656827479" r="3" fill="#00d22e" opacity="0.9" filter="blur(0.2px)" /><circle cx="1078.1802717503635" cy="14.37195135628997" r="3" fill="#00d22e" opacity="0.9" filter="blur(0.2px)" /><circle cx="837.3217554182916" cy="444.8634357698795" r="3" fill="#00d22e" opacity="0.9" filter="blur(0.2px)" /><circle cx="763.2130076170855" cy="690.5734957915954" r="3" fill="#00d22e" opacity="0.7" filter="blur(0.2px)" /><circle cx="683.5834890574528" cy="580.8077771054819" r="3" fill="#00d22e" opacity="0.7" filter="blur(0.2px)" /><circle cx="179.31834066596366" cy="610.627304384528" r="3" fill="#00d22e" opacity="0.4" filter="blur(0.2px)" /><circle cx="15.217480490228308" cy="649.6609746447532" r="3" fill="#00d22e" opacity="0.4" filter="blur(0.2px)" /><circle cx="371.72577581596215" cy="689.893756965909" r="3" fill="#00d22e" opacity="0.4" filter="blur(0.2px)" /><circle cx="36.64878551715027" cy="628.7559576889533" r="3" fill="#00d22e" opacity="0.4" filter="blur(0.2px)" /><circle cx="852.764150717383" cy="605.27579688927" r="3" fill="#00d22e" opacity="0.9" filter="blur(0.2px)" /><circle cx="387.24119444549825" cy="723.7328010447546" r="3" fill="#00d22e" opacity="0.4" filter="blur(0.2px)" /><circle cx="722.990396182356" cy="436.95230128908895" r="3" fill="#00d22e" opacity="0.7" filter="blur(0.2px)" /><circle cx="875.2890113748906" cy="658.9596642948202" r="3" fill="#00d22e" opacity="0.9" filter="blur(0.2px)" /><circle cx="604.7178142138698" cy="729.3685655017308" r="3" fill="#00d22e" opacity="0.7" filter="blur(0.2px)" /><circle cx="926.933481090162" cy="132.46975195475255" r="3" fill="#00d22e" opacity="0.9" filter="blur(0.2px)" /><circle cx="1120.464563835168" cy="291.31284666305925" r="3" fill="#00d22e" opacity="0.9" filter="blur(0.2px)" /><circle cx="534.5337511350896" cy="449.3195179742795" r="3" fill="#00d22e" opacity="0.7" filter="blur(0.2px)" /><circle cx="347.76974465993425" cy="709.7866203072416" r="3" fill="#00d22e" opacity="0.4" filter="blur(0.2px)" /><circle cx="442.998882238944" cy="113.57166519679538" r="3" fill="#00d22e" opacity="0.7" filter="blur(0.2px)" /><circle cx="1091.9187885629194" cy="740.4694677646913" r="3" fill="#00d22e" opacity="0.9" filter="blur(0.2px)" /><circle cx="390.0799284925933" cy="374.02685003586686" r="3" fill="#00d22e" opacity="0.4" filter="blur(0.2px)" /><circle cx="301.27921966362965" cy="218.64952519865886" r="3" fill="#00d22e" opacity="0.4" filter="blur(0.2px)" /><circle cx="564.0614736287383" cy="39.70453183576801" r="3" fill="#00d22e" opacity="0.7" filter="blur(0.2px)" /><circle cx="703.717072358323" cy="301.9232727718942" r="3" fill="#00d22e" opacity="0.7" filter="blur(0.2px)" /><circle cx="559.5464955383742" cy="367.13851791688387" r="3" fill="#00d22e" opacity="0.7" filter="blur(0.2px)" /><circle cx="441.5927924599524" cy="54.315493323825415" r="3" fill="#00d22e" opacity="0.7" filter="blur(0.2px)" /><circle cx="215.99484156166932" cy="343.6256716034883" r="3" fill="#00d22e" opacity="0.4" filter="blur(0.2px)" /><circle cx="61.801000763629155" cy="242.23825237550062" r="3" fill="#00d22e" opacity="0.4" filter="blur(0.2px)" /><circle cx="229.79385052807152" cy="371.70191199990586" r="3" fill="#00d22e" opacity="0.4" filter="blur(0.2px)" /><circle cx="810.4137780654589" cy="773.6617257826124" r="3" fill="#00d22e" opacity="0.9" filter="blur(0.2px)" /><circle cx="657.1564923519159" cy="12.30778408300317" r="3" fill="#00d22e" opacity="0.7" filter="blur(0.2px)" /><circle cx="845.7702016570476" cy="718.3523484522298" r="3" fill="#00d22e" opacity="0.9" filter="blur(0.2px)" /><circle cx="312.5244247430151" cy="537.2042702816155" r="3" fill="#00d22e" opacity="0.4" filter="blur(0.2px)" /><circle cx="327.85601731227905" cy="52.16093013293417" r="3" fill="#00d22e" opacity="0.4" filter="blur(0.2px)" /><circle cx="194.03736375985804" cy="503.7885281756008" r="3" fill="#00d22e" opacity="0.4" filter="blur(0.2px)" /><circle cx="904.4633794361802" cy="382.8744036156152" r="3" fill="#00d22e" opacity="0.9" filter="blur(0.2px)" /><circle cx="84.75832811611906" cy="422.018807978105" r="3" fill="#00d22e" opacity="0.4" filter="blur(0.2px)" /><circle cx="1029.8491440744958" cy="89.07320507637255" r="3" fill="#00d22e" opacity="0.9" filter="blur(0.2px)" /><circle cx="1172.9446275369125" cy="472.8356785901921" r="3" fill="#00d22e" opacity="0.9" filter="blur(0.2px)" /><circle cx="948.2143382959346" cy="15.928396628280872" r="3" fill="#00d22e" opacity="0.9" filter="blur(0.2px)" /><circle cx="919.9171606992956" cy="279.41547345646535" r="3" fill="#00d22e" opacity="0.9" filter="blur(0.2px)" /><circle cx="1191.247757219253" cy="26.46538585530145" r="3" fill="#00d22e" opacity="0.9" filter="blur(0.2px)" /><circle cx="1025.206829385248" cy="428.91038490599203" r="3" fill="#00d22e" opacity="0.9" filter="blur(0.2px)" /><circle cx="520.1254231860839" cy="582.538830437225" r="3" fill="#00d22e" opacity="0.7" filter="blur(0.2px)" /><circle cx="699.8992334088324" cy="520.1700722129465" r="3" fill="#00d22e" opacity="0.7" filter="blur(0.2px)" /><circle cx="627.2228786484727" cy="671.0591275359002" r="3" fill="#00d22e" opacity="0.7" filter="blur(0.2px)" /><circle cx="797.0015966100417" cy="347.46380580437676" r="3" fill="#00d22e" opacity="0.7" filter="blur(0.2px)" /><circle cx="414.165489425634" cy="794.096544930205" r="3" fill="#00d22e" opacity="0.7" filter="blur(0.2px)" /><circle cx="595.0807351857009" cy="183.93780969106058" r="3" fill="#00d22e" opacity="0.7" filter="blur(0.2px)" /><circle cx="912.6457966587266" cy="354.77109324444547" r="3" fill="#00d22e" opacity="0.9" filter="blur(0.2px)" /><circle cx="952.9404799551739" cy="279.88573576168625" r="3" fill="#00d22e" opacity="0.9" filter="blur(0.2px)" /><circle cx="165.42401699429243" cy="148.9661535031125" r="3" fill="#00d22e" opacity="0.4" filter="blur(0.2px)" /><circle cx="1154.2910070363937" cy="59.12454556667068" r="3" fill="#00d22e" opacity="0.9" filter="blur(0.2px)" /><circle cx="987.2453516066887" cy="472.17324653133426" r="3" fill="#00d22e" opacity="0.9" filter="blur(0.2px)" /><circle cx="718.2835381929203" cy="602.5255020436005" r="3" fill="#00d22e" opacity="0.7" filter="blur(0.2px)" /><circle cx="919.6465897036758" cy="192.44692080441493" r="3" fill="#00d22e" opacity="0.9" filter="blur(0.2px)" /><circle cx="41.36723659824302" cy="608.7454764318229" r="3" fill="#00d22e" opacity="0.4" filter="blur(0.2px)" /><circle cx="615.9123354465717" cy="302.54746730495174" r="3" fill="#00d22e" opacity="0.7" filter="blur(0.2px)" /><circle cx="6.185801452552475" cy="427.39676582425864" r="3" fill="#00d22e" opacity="0.4" filter="blur(0.2px)" /><circle cx="413.5189274145433" cy="502.46014007436185" r="3" fill="#00d22e" opacity="0.7" filter="blur(0.2px)" /><circle cx="792.0789688918691" cy="648.3650949922774" r="3" fill="#00d22e" opacity="0.7" filter="blur(0.2px)" /><circle cx="745.1575719570754" cy="232.05033384165662" r="3" fill="#00d22e" opacity="0.7" filter="blur(0.2px)" /><circle cx="341.8117920104864" cy="474.4201263334013" r="3" fill="#00d22e" opacity="0.4" filter="blur(0.2px)" /><circle cx="385.31478179550635" cy="644.46697676605" r="3" fill="#00d22e" opacity="0.4" filter="blur(0.2px)" /><circle cx="780.6417315285041" cy="693.6424930649733" r="3" fill="#00d22e" opacity="0.7" filter="blur(0.2px)" /><circle cx="921.8471645421793" cy="109.39399986468158" r="3" fill="#00d22e" opacity="0.9" filter="blur(0.2px)" /><circle cx="109.61736782836499" cy="150.5905167481936" r="3" fill="#00d22e" opacity="0.4" filter="blur(0.2px)" /><circle cx="937.148791966759" cy="181.36003532823412" r="3" fill="#00d22e" opacity="0.9" filter="blur(0.2px)" /><circle cx="333.03447677543386" cy="196.22824333804925" r="3" fill="#00d22e" opacity="0.4" filter="blur(0.2px)" /><circle cx="1086.1511162164516" cy="778.4750105370305" r="3" fill="#00d22e" opacity="0.9" filter="blur(0.2px)" /><circle cx="739.2658012668824" cy="197.15636810046533" r="3" fill="#00d22e" opacity="0.7" filter="blur(0.2px)" /><circle cx="819.9856350010941" cy="335.572145360422" r="3" fill="#00d22e" opacity="0.9" filter="blur(0.2px)" /><circle cx="996.1823081783484" cy="560.7905434756392" r="3" fill="#00d22e" opacity="0.9" filter="blur(0.2px)" /><circle cx="1125.5627050508174" cy="210.4134560453458" r="3" fill="#00d22e" opacity="0.9" filter="blur(0.2px)" /><circle cx="825.542594867124" cy="661.1138465912278" r="3" fill="#00d22e" opacity="0.9" filter="blur(0.2px)" /><circle cx="549.7633108073293" cy="628.1030111836786" r="3" fill="#00d22e" opacity="0.7" filter="blur(0.2px)" /><circle cx="823.1773954811349" cy="56.32214151500836" r="3" fill="#00d22e" opacity="0.9" filter="blur(0.2px)" /><circle cx="249.9127198679707" cy="600.575342579825" r="3" fill="#00d22e" opacity="0.4" filter="blur(0.2px)" /><circle cx="686.1031154905498" cy="212.74424433564826" r="3" fill="#00d22e" opacity="0.7" filter="blur(0.2px)" /><circle cx="719.6317165030446" cy="155.4164812589505" r="3" fill="#00d22e" opacity="0.7" filter="blur(0.2px)" /><circle cx="623.1020701071062" cy="738.5117862440991" r="3" fill="#00d22e" opacity="0.7" filter="blur(0.2px)" /><circle cx="893.8813928835241" cy="211.10802346213617" r="3" fill="#00d22e" opacity="0.9" filter="blur(0.2px)" /><circle cx="1111.014328533329" cy="72.6120629608733" r="3" fill="#00d22e" opacity="0.9" filter="blur(0.2px)" /><circle cx="151.11892485265778" cy="399.4934353393658" r="3" fill="#00d22e" opacity="0.4" filter="blur(0.2px)" /><circle cx="984.8421413150602" cy="33.659615755005134" r="3" fill="#00d22e" opacity="0.9" filter="blur(0.2px)" /><circle cx="383.06000757579415" cy="47.141011211609474" r="3" fill="#00d22e" opacity="0.4" filter="blur(0.2px)" /><circle cx="441.5039065944277" cy="43.549286123633024" r="3" fill="#00d22e" opacity="0.7" filter="blur(0.2px)" /><circle cx="821.0018617901595" cy="165.44357174330528" r="3" fill="#00d22e" opacity="0.9" filter="blur(0.2px)" /><circle cx="809.0784381930292" cy="22.45050641387465" r="3" fill="#00d22e" opacity="0.9" filter="blur(0.2px)" /><circle cx="346.38632069169785" cy="238.45758531860798" r="3" fill="#00d22e" opacity="0.4" filter="blur(0.2px)" /><circle cx="155.6860174701053" cy="768.1478115590368" r="3" fill="#00d22e" opacity="0.4" filter="blur(0.2px)" /><circle cx="716.1943384596352" cy="314.1391789556513" r="3" fill="#00d22e" opacity="0.7" filter="blur(0.2px)" /><circle cx="972.7532676189481" cy="559.6606344278822" r="3" fill="#00d22e" opacity="0.9" filter="blur(0.2px)" /><circle cx="1024.7814629503819" cy="457.773111744862" r="3" fill="#00d22e" opacity="0.9" filter="blur(0.2px)" /><circle cx="203.42522460823736" cy="162.42318558592288" r="3" fill="#00d22e" opacity="0.4" filter="blur(0.2px)" /><circle cx="913.4931354715615" cy="317.8254681368866" r="3" fill="#00d22e" opacity="0.9" filter="blur(0.2px)" /><circle cx="433.2271072527321" cy="595.81256190914" r="3" fill="#00d22e" opacity="0.7" filter="blur(0.2px)" /><circle cx="455.27479865870094" cy="343.6096856312968" r="3" fill="#00d22e" opacity="0.7" filter="blur(0.2px)" /><circle cx="388.7036373219188" cy="359.2207245232478" r="3" fill="#00d22e" opacity="0.4" filter="blur(0.2px)" /><circle cx="417.0612533944741" cy="73.14426803155243" r="3" fill="#00d22e" opacity="0.7" filter="blur(0.2px)" /><circle cx="740.6651714517598" cy="253.41518835963922" r="3" fill="#00d22e" opacity="0.7" filter="blur(0.2px)" /><circle cx="1162.2153600108275" cy="607.1244614668117" r="3" fill="#00d22e" opacity="0.9" filter="blur(0.2px)" /><circle cx="685.2592927568062" cy="503.7617628519483" r="3" fill="#00d22e" opacity="0.7" filter="blur(0.2px)" /><circle cx="461.44985936080866" cy="64.79261815379296" r="3" fill="#00d22e" opacity="0.7" filter="blur(0.2px)" /><circle cx="523.5072754662583" cy="676.0351789202405" r="3" fill="#00d22e" opacity="0.7" filter="blur(0.2px)" /><circle cx="391.70392402450125" cy="148.4340327726283" r="3" fill="#00d22e" opacity="0.4" filter="blur(0.2px)" /><circle cx="480.98732519051833" cy="321.6191467025725" r="3" fill="#00d22e" opacity="0.7" filter="blur(0.2px)" /><circle cx="134.52259717862293" cy="139.50656316873093" r="3" fill="#00d22e" opacity="0.4" filter="blur(0.2px)" /><circle cx="298.4782306815407" cy="297.79456118682003" r="3" fill="#00d22e" opacity="0.4" filter="blur(0.2px)" /><circle cx="833.2201219093115" cy="21.22134277850307" r="3" fill="#00d22e" opacity="0.9" filter="blur(0.2px)" /><circle cx="991.656216529491" cy="771.2245119925329" r="3" fill="#00d22e" opacity="0.9" filter="blur(0.2px)" /><circle cx="255.89405213297755" cy="606.1116224755451" r="3" fill="#00d22e" opacity="0.4" filter="blur(0.2px)" /><circle cx="80.66552635538989" cy="706.0321991091984" r="3" fill="#00d22e" opacity="0.4" filter="blur(0.2px)" /><circle cx="270.3600578733563" cy="168.08022765056876" r="3" fill="#00d22e" opacity="0.4" filter="blur(0.2px)" /><circle cx="206.1998799001648" cy="736.1214671931986" r="3" fill="#00d22e" opacity="0.4" filter="blur(0.2px)" /><circle cx="51.51912564084071" cy="449.21421364035655" r="3" fill="#00d22e" opacity="0.4" filter="blur(0.2px)" /><circle cx="846.2899009427047" cy="625.6657552025155" r="3" fill="#00d22e" opacity="0.9" filter="blur(0.2px)" /><circle cx="629.8483343142501" cy="532.6072588673741" r="3" fill="#00d22e" opacity="0.7" filter="blur(0.2px)" /><circle cx="328.8530465715341" cy="312.0797692172811" r="3" fill="#00d22e" opacity="0.4" filter="blur(0.2px)" /><circle cx="224.200349774235" cy="422.26818023748683" r="3" fill="#00d22e" opacity="0.4" filter="blur(0.2px)" /><circle cx="1136.824515338123" cy="480.1440164456611" r="3" fill="#00d22e" opacity="0.9" filter="blur(0.2px)" /><circle cx="896.2752096791983" cy="619.6485403350313" r="3" fill="#00d22e" opacity="0.9" filter="blur(0.2px)" /><circle cx="853.5145011216298" cy="207.10250813454093" r="3" fill="#00d22e" opacity="0.9" filter="blur(0.2px)" /><circle cx="691.4178951533389" cy="746.4557882757848" r="3" fill="#00d22e" opacity="0.7" filter="blur(0.2px)" /><circle cx="1126.2765242321896" cy="352.22877792332827" r="3" fill="#00d22e" opacity="0.9" filter="blur(0.2px)" /><circle cx="720.2109001602158" cy="534.2310204749695" r="3" fill="#00d22e" opacity="0.7" filter="blur(0.2px)" /><circle cx="766.6133259535519" cy="147.24637507617598" r="3" fill="#00d22e" opacity="0.7" filter="blur(0.2px)" /><circle cx="1104.6624760525378" cy="225.9449530308073" r="3" fill="#00d22e" opacity="0.9" filter="blur(0.2px)" /><circle cx="980.8289692841994" cy="741.393132620758" r="3" fill="#00d22e" opacity="0.9" filter="blur(0.2px)" /><circle cx="648.432070576405" cy="750.3143874725948" r="3" fill="#00d22e" opacity="0.7" filter="blur(0.2px)" /><circle cx="1131.2920394018786" cy="446.1791573217836" r="3" fill="#00d22e" opacity="0.9" filter="blur(0.2px)" /><circle cx="913.9444455932045" cy="369.58639416234416" r="3" fill="#00d22e" opacity="0.9" filter="blur(0.2px)" /><circle cx="777.1119215307357" cy="238.22733153331512" r="3" fill="#00d22e" opacity="0.7" filter="blur(0.2px)" /><circle cx="379.40665093168917" cy="42.60368995770758" r="3" fill="#00d22e" opacity="0.4" filter="blur(0.2px)" /><circle cx="233.2109104324257" cy="681.4948940509853" r="3" fill="#00d22e" opacity="0.4" filter="blur(0.2px)" /><circle cx="373.0352842728749" cy="154.0766376260029" r="3" fill="#00d22e" opacity="0.4" filter="blur(0.2px)" /><circle cx="1106.2037347670437" cy="230.99427944387187" r="3" fill="#00d22e" opacity="0.9" filter="blur(0.2px)" /><circle cx="592.6744739389334" cy="390.23068374268524" r="3" fill="#00d22e" opacity="0.7" filter="blur(0.2px)" /><circle cx="642.0217809878761" cy="675.7314846193816" r="3" fill="#00d22e" opacity="0.7" filter="blur(0.2px)" /><circle cx="995.3423764231053" cy="375.87284600975704" r="3" fill="#00d22e" opacity="0.9" filter="blur(0.2px)" /><circle cx="538.9653497860787" cy="68.95648117332573" r="3" fill="#00d22e" opacity="0.7" filter="blur(0.2px)" /><circle cx="640.1098141787159" cy="151.0544474356937" r="3" fill="#00d22e" opacity="0.7" filter="blur(0.2px)" /><circle cx="615.7770012616586" cy="407.00179979619924" r="3" fill="#00d22e" opacity="0.7" filter="blur(0.2px)" /><circle cx="769.4311588646751" cy="161.46660659568468" r="3" fill="#00d22e" opacity="0.7" filter="blur(0.2px)" /><circle cx="1153.3545085286994" cy="532.7989994916995" r="3" fill="#00d22e" opacity="0.9" filter="blur(0.2px)" /><circle cx="822.2468304125122" cy="251.29245128285442" r="3" fill="#00d22e" opacity="0.9" filter="blur(0.2px)" /><circle cx="85.94089969413092" cy="572.2420218200814" r="3" fill="#00d22e" opacity="0.4" filter="blur(0.2px)" /><circle cx="938.0463734285189" cy="647.7728546749236" r="3" fill="#00d22e" opacity="0.9" filter="blur(0.2px)" /><circle cx="1178.407714622044" cy="233.96983107611663" r="3" fill="#00d22e" opacity="0.9" filter="blur(0.2px)" /><circle cx="239.06657848219862" cy="212.01765314721914" r="3" fill="#00d22e" opacity="0.4" filter="blur(0.2px)" /><circle cx="409.27135772613997" cy="274.1615545652785" r="3" fill="#00d22e" opacity="0.7" filter="blur(0.2px)" /><circle cx="411.50469886490583" cy="526.0446221209766" r="3" fill="#00d22e" opacity="0.7" filter="blur(0.2px)" /><circle cx="192.26100515289505" cy="98.24119740839805" r="3" fill="#00d22e" opacity="0.4" filter="blur(0.2px)" /><circle cx="391.65049525031526" cy="547.2875489901544" r="3" fill="#00d22e" opacity="0.4" filter="blur(0.2px)" /><circle cx="416.9851744607077" cy="180.1544958536562" r="3" fill="#00d22e" opacity="0.7" filter="blur(0.2px)" /><circle cx="327.92389056890744" cy="31.181570016082105" r="3" fill="#00d22e" opacity="0.4" filter="blur(0.2px)" /><circle cx="258.98859238838253" cy="185.7752821538682" r="3" fill="#00d22e" opacity="0.4" filter="blur(0.2px)" /><circle cx="904.1185569885508" cy="345.4765875348542" r="3" fill="#00d22e" opacity="0.9" filter="blur(0.2px)" /><circle cx="830.7027515141638" cy="200.0467895438865" r="3" fill="#00d22e" opacity="0.9" filter="blur(0.2px)" /><circle cx="221.55817063942482" cy="5.0574715622811794" r="3" fill="#00d22e" opacity="0.4" filter="blur(0.2px)" /><circle cx="782.3621080662044" cy="470.54531049566447" r="3" fill="#00d22e" opacity="0.7" filter="blur(0.2px)" /><circle cx="845.8331845824237" cy="556.9360318985961" r="3" fill="#00d22e" opacity="0.9" filter="blur(0.2px)" /><circle cx="172.89092093959118" cy="665.7377495712495" r="3" fill="#00d22e" opacity="0.4" filter="blur(0.2px)" /><circle cx="643.1205471139174" cy="177.47644370133742" r="3" fill="#00d22e" opacity="0.7" filter="blur(0.2px)" /><circle cx="351.09486307052765" cy="434.57860694652356" r="3" fill="#00d22e" opacity="0.4" filter="blur(0.2px)" /><circle cx="830.3033982442191" cy="99.46338157910989" r="3" fill="#00d22e" opacity="0.9" filter="blur(0.2px)" /><circle cx="170.8746730392825" cy="216.28804154214816" r="3" fill="#00d22e" opacity="0.4" filter="blur(0.2px)" /><circle cx="694.9137152126641" cy="352.4385101372385" r="3" fill="#00d22e" opacity="0.7" filter="blur(0.2px)" /><circle cx="894.9122932203221" cy="394.35545806205516" r="3" fill="#00d22e" opacity="0.9" filter="blur(0.2px)" /><circle cx="768.6497765390019" cy="14.84650114330659" r="3" fill="#00d22e" opacity="0.7" filter="blur(0.2px)" /><circle cx="706.9703857842217" cy="233.30896821986062" r="3" fill="#00d22e" opacity="0.7" filter="blur(0.2px)" /><circle cx="1010.4922837998678" cy="137.43531359366656" r="3" fill="#00d22e" opacity="0.9" filter="blur(0.2px)" /><circle cx="228.927726713495" cy="150.2860230325565" r="3" fill="#00d22e" opacity="0.4" filter="blur(0.2px)" /><circle cx="871.1092075851651" cy="34.04135821281731" r="3" fill="#00d22e" opacity="0.9" filter="blur(0.2px)" /><circle cx="132.84068371577308" cy="487.21662065175957" r="3" fill="#00d22e" opacity="0.4" filter="blur(0.2px)" /><circle cx="205.0933848102506" cy="112.52742564899698" r="3" fill="#00d22e" opacity="0.4" filter="blur(0.2px)" /><circle cx="1059.7040074828747" cy="466.5041280381921" r="3" fill="#00d22e" opacity="0.9" filter="blur(0.2px)" /><circle cx="300.9842228639905" cy="629.2804822835384" r="3" fill="#00d22e" opacity="0.4" filter="blur(0.2px)" /><circle cx="973.2147849994855" cy="510.88690049386224" r="3" fill="#00d22e" opacity="0.9" filter="blur(0.2px)" /><circle cx="847.5512758835107" cy="523.6518562389845" r="3" fill="#00d22e" opacity="0.9" filter="blur(0.2px)" /><circle cx="634.5526568615338" cy="548.5827026036706" r="3" fill="#00d22e" opacity="0.7" filter="blur(0.2px)" /><circle cx="108.44396350697734" cy="308.18718456351064" r="3" fill="#00d22e" opacity="0.4" filter="blur(0.2px)" /><circle cx="26.96363059017619" cy="691.1612251627818" r="3" fill="#00d22e" opacity="0.4" filter="blur(0.2px)" /><circle cx="70.76594975911065" cy="696.3074732146529" r="3" fill="#00d22e" opacity="0.4" filter="blur(0.2px)" /><circle cx="235.67202886330813" cy="781.8681801283997" r="3" fill="#00d22e" opacity="0.4" filter="blur(0.2px)" /><circle cx="210.25570296661266" cy="33.32680324409196" r="3" fill="#00d22e" opacity="0.4" filter="blur(0.2px)" /><circle cx="576.8666789177865" cy="36.08279011879851" r="3" fill="#00d22e" opacity="0.7" filter="blur(0.2px)" /><circle cx="305.3638736245123" cy="71.28337486753597" r="3" fill="#00d22e" opacity="0.4" filter="blur(0.2px)" /><circle cx="864.5623592338575" cy="589.4427367025411" r="3" fill="#00d22e" opacity="0.9" filter="blur(0.2px)" /><circle cx="780.0363972024247" cy="160.80276128449427" r="3" fill="#00d22e" opacity="0.7" filter="blur(0.2px)" /><circle cx="1117.0301172774377" cy="670.7724614498719" r="3" fill="#00d22e" opacity="0.9" filter="blur(0.2px)" /><circle cx="173.4187759981915" cy="717.1393480721413" r="3" fill="#00d22e" opacity="0.4" filter="blur(0.2px)" /><circle cx="320.86894844217574" cy="700.8752112398109" r="3" fill="#00d22e" opacity="0.4" filter="blur(0.2px)" /><circle cx="423.65555670125144" cy="457.6245458189542" r="3" fill="#00d22e" opacity="0.7" filter="blur(0.2px)" /></svg>