<svg width="1920" height="473" viewBox="0 0 1920 473" fill="none" xmlns="http://www.w3.org/2000/svg">
<g clip-path="url(#clip0_272_97350)">
<path d="M187.019 0H0V472.99H122.459V343.494H187.019C335.678 343.494 401.608 295.133 401.608 172.382C401.608 49.6301 335.678 0 187.019 0ZM194.409 236.86H122.459V106.734H194.409C253.679 106.734 279.889 124.22 279.889 172.481C279.889 220.743 253.579 236.86 194.409 236.86Z" fill="white"/>
<path d="M923.615 432.103L863.806 0H830.026H714.656H680.176L620.127 432.103L555.467 0H433.008L502.317 472.99H728.326L772.206 120.393L815.896 472.99H1040.89L1109.9 0H987.985L923.615 432.103Z" fill="white"/>
<path d="M1550.04 0L1415.43 428.736L1280.92 0H1151.07L1302.48 472.99H1526.47L1678.52 0H1550.04Z" fill="white"/>
<path d="M1769.27 322.641C1686.04 322.671 1618.55 389.987 1618.55 473H1920C1920 389.987 1852.51 322.671 1769.28 322.641H1769.27Z" fill="white"/>
</g>
<defs>
<clipPath id="clip0_272_97350">
<rect width="1920" height="473" fill="white"/>
</clipPath>
</defs>
</svg>
