<svg width="800" height="197" viewBox="0 0 800 197" fill="none" xmlns="http://www.w3.org/2000/svg">
<g clip-path="url(#clip0_272_97393)">
<path d="M77.9246 0H0V196.996H51.0247V143.062H77.9246C139.866 143.062 167.337 122.92 167.337 71.7953C167.337 20.6705 139.866 0 77.9246 0ZM81.0037 98.6498H51.0247V44.4538H81.0037C105.699 44.4538 116.62 51.7365 116.62 71.8369C116.62 91.9372 105.658 98.6498 81.0037 98.6498Z" fill="black"/>
<path d="M384.84 179.967L359.919 0H345.844H297.773H283.407L258.386 179.967L231.445 0H180.42L209.299 196.996H303.469L321.752 50.1427L339.957 196.996H433.706L462.46 0H411.66L384.84 179.967Z" fill="black"/>
<path d="M645.851 0L589.764 178.564L533.718 0H479.614L542.701 196.996H636.03L699.384 0H645.851Z" fill="black"/>
<path d="M737.196 134.377C702.517 134.389 674.396 162.426 674.396 197H800C800 162.426 771.879 134.389 737.2 134.377H737.196Z" fill="black"/>
</g>
<defs>
<clipPath id="clip0_272_97393">
<rect width="800" height="197" fill="white"/>
</clipPath>
</defs>
</svg>
