<svg width="180" height="180" viewBox="0 0 180 180" fill="none" xmlns="http://www.w3.org/2000/svg">
<g clip-path="url(#clip0_272_97371)">
<path d="M89.997 90C40.2992 90.0179 0 130.311 0 180H180C180 130.311 139.701 90.0179 90.003 90H89.997Z" fill="black"/>
<path d="M20.0554 0H0V50.7222H13.1322V36.8354H20.0554C35.9972 36.8354 43.0673 31.6492 43.0673 18.4857C43.0673 5.3222 35.9972 0 20.0554 0ZM20.8479 25.4002H13.1322V11.4459H20.8479C27.2038 11.4459 30.0145 13.321 30.0145 18.4964C30.0145 23.6718 27.1931 25.4002 20.8479 25.4002Z" fill="black"/>
<path d="M99.046 46.3375L92.6321 0H89.0097H76.6378H72.9403L66.5007 46.3375L59.5668 0H46.4346L53.8671 50.7222H78.1037L82.8093 12.9106L87.4944 50.7222H111.623L119.023 0H105.949L99.046 46.3375Z" fill="black"/>
<path d="M166.222 0L151.787 45.9764L137.363 0H123.438L139.675 50.7222H163.695L180 0H166.222Z" fill="black"/>
</g>
<defs>
<clipPath id="clip0_272_97371">
<rect width="180" height="180" fill="white"/>
</clipPath>
</defs>
</svg>
